<?xml version="1.0" encoding="UTF-8" standalone="no"?>
<!-- Created with Inkscape (http://www.inkscape.org/) -->

<svg
   version="1.1"
   id="svg1"
   width="750"
   height="750"
   viewBox="0 0 750 750"
   xml:space="preserve"
   sodipodi:docname="uitaf_logo.svg"
   inkscape:version="1.3.2 (091e20e, 2023-11-25)"
   xmlns:inkscape="http://www.inkscape.org/namespaces/inkscape"
   xmlns:sodipodi="http://sodipodi.sourceforge.net/DTD/sodipodi-0.dtd"
   xmlns="http://www.w3.org/2000/svg"
   xmlns:svg="http://www.w3.org/2000/svg"><sodipodi:namedview
     id="namedview1"
     pagecolor="#ffffff"
     bordercolor="#000000"
     borderopacity="0.25"
     inkscape:showpageshadow="2"
     inkscape:pageopacity="0.0"
     inkscape:pagecheckerboard="0"
     inkscape:deskcolor="#d1d1d1"
     inkscape:zoom="0.31466667"
     inkscape:cx="378.17796"
     inkscape:cy="375"
     inkscape:window-width="1312"
     inkscape:window-height="615"
     inkscape:window-x="101"
     inkscape:window-y="190"
     inkscape:window-maximized="0"
     inkscape:current-layer="g1" /><defs
     id="defs1" /><g
     id="g1"
     transform="translate(-146.87038,-123.76208)"><circle
       style="fill:#00ff00;stroke-width:3.77953;stroke-miterlimit:0"
       id="path1"
       cx="376.58896"
       cy="365.46609"
       r="263.77118"
       transform="translate(146.87038,123.76208)" /><path
       id="path111"
       style="fill:#46787d;fill-opacity:1;stroke-width:0.89945;stroke-dasharray:none"
       d="m 480.34461,123.76208 -2.69814,2.48793 c -2.952,2.72129 -2.49932,0.5404 -10.74363,51.68654 -3.04691,18.90267 -3.68493,21.09347 -6.74621,23.12298 -3.10755,2.06021 -32.40841,10.45888 -36.48851,10.45888 -3.25639,0 -4.13452,-0.5295 -8.35287,-5.04303 -2.59232,-2.77373 -9.83261,-11.22143 -16.08922,-18.77262 -25.20485,-30.41987 -24.33062,-29.46303 -27.8685,-30.53553 -2.28377,-0.69231 -4.35735,-0.737 -6.48947,-0.14136 -3.98147,1.11234 -69.62746,45.35434 -72.19292,48.65436 -1.06666,1.37207 -1.91576,3.76809 -1.91576,5.40879 0,1.95308 4.25562,11.74345 12.6297,29.05479 11.29629,23.52989 20.74103,27.18025 2.23359,46.32371 -17.5492,19.25027 -27.99313,9.84235 -50.98681,-1.04785 -22.30274,-9.74398 -25.70017,-10.98044 -30.24878,-11.00134 -4.53559,-0.0209 -5.42212,0.28876 -7.72066,2.69115 -1.42823,1.49274 -11.3749,16.96326 -22.10374,34.37875 -10.72879,17.4155 -20.432,33.0438 -21.56233,34.7304 -2.56978,3.83442 -2.69607,8.98557 -0.29514,12.07392 0.96838,1.24563 13.0844,10.76363 26.92369,21.151 25.49335,19.13455 29.84375,22.95627 30.87919,27.13051 0.54037,2.17844 -2.33734,15.47579 -5.61281,25.93605 -1.58434,5.0596 -3.76692,6.49564 -11.03177,7.26235 -28.66433,3.02517 -61.25661,7.1511 -62.71192,7.93915 -4.08205,2.21047 -4.35274,4.86432 -4.26986,41.74716 0.095,42.21143 0.54673,49.6917 3.15918,52.33501 1.98489,2.00835 7.35096,2.85895 51.30466,8.13175 16.98574,2.03767 19.43583,2.79522 22.04261,6.82063 1.77778,2.74531 6.52146,22.04132 6.55061,26.64813 0.0288,4.53583 -1.34495,5.77619 -36.4309,32.90154 -11.44152,8.84558 -21.1581,16.75653 -21.59203,17.5799 -0.82222,1.56013 -1.23793,4.65534 -1.06878,7.94445 0.14917,2.90013 41.52108,71.88159 45.22033,75.3979 2.62698,2.49708 8.45212,3.35221 12.31013,1.80764 1.60755,-0.64359 9.76185,-4.11481 18.122,-7.71295 21.41171,-9.21548 34.46732,-14.54005 37.32329,-15.22273 4.42365,-1.05741 7.93248,1.49713 18.97948,13.81088 12.91429,14.3952 14.26594,16.40395 13.63908,20.27633 -0.25847,1.59675 -6.1417,14.50205 -13.07502,28.67841 -13.16496,26.91798 -13.91065,29.21063 -11.21514,34.4848 1.37874,2.69766 16.49862,13.17366 52.76637,36.56102 20.69254,13.34363 21.67033,13.73632 27.15071,10.86882 1.39495,-0.72987 10.58413,-10.60252 20.42023,-21.93909 9.83614,-11.33657 19.95718,-22.64811 22.48969,-25.13557 4.1756,-4.1014 4.9544,-4.50428 8.37031,-4.33445 5.08102,0.2526 33.48751,8.78554 36.35231,10.92006 3.33215,2.48275 4.81479,7.94006 9.41463,34.6385 5.9978,34.81248 5.66565,33.43227 8.71436,36.31379 l 2.67717,2.52854 h 41.15306 c 39.87681,0 41.24496,-0.0578 44.10791,-1.84823 3.41551,-2.13587 4.22785,-4.26606 6.19433,-16.24587 4.43539,-27.01996 8.86836,-49.64541 10.18482,-51.9888 0.82868,-1.47514 2.77727,-3.434 4.331,-4.35212 3.15705,-1.86562 32.34171,-10.6092 35.39353,-10.60378 3.83145,0.007 7.64415,3.63298 24.36175,23.17422 24.30769,28.41329 26.11202,30.19982 30.50374,30.19982 2.71879,0 5.36943,-1.10404 11.0964,-4.62249 14.53436,-8.92936 61.19841,-40.75534 63.63051,-43.39754 4.44225,-4.82597 3.88124,-6.75769 -10.50612,-36.14927 -8.67435,-17.72061 -12.96501,-27.45902 -12.96501,-29.42941 0,-3.57663 3.03722,-7.5857 16.74763,-22.10695 9.73213,-10.3077 9.8602,-10.40304 13.75086,-10.27863 3.8984,0.12465 14.45551,4.27835 44.60039,17.54808 7.47929,3.29237 14.71367,5.87528 17.1126,6.10852 3.74967,0.36455 4.4671,0.10643 7.35745,-2.64167 2.73902,-2.60419 39.53439,-61.79381 44.47461,-71.54233 2.25565,-4.45097 2.19933,-9.78049 -0.13449,-12.78246 -1.00928,-1.29828 -5.86921,-5.4364 -10.80122,-9.19547 -36.21969,-27.60635 -44.78387,-34.66357 -45.87174,-37.80322 -0.65306,-1.88479 -0.32469,-5.31225 1.29581,-13.55466 2.41607,-12.28884 4.7015,-17.79048 8.03502,-19.33805 1.22945,-0.57077 11.08736,-2.12624 21.90639,-3.45627 44.88235,-5.51759 45.23125,-5.57805 47.76115,-8.13702 l 2.31044,-2.33775 0.24972,-42.49637 c 0.21574,-36.81842 0.0661,-42.85496 -1.12641,-45.18751 -2.41261,-4.72053 -0.0389,-4.22932 -44.21778,-9.13893 -13.98336,-1.55395 -26.33771,-3.17746 -27.45282,-3.60645 -1.11513,-0.42896 -2.62851,-1.95632 -3.36351,-3.39439 -1.51228,-2.95904 -6.79684,-23.48962 -6.79684,-26.40607 0,-5.34212 4.75401,-9.71808 38.15631,-35.12973 9.92101,-7.54767 18.91233,-14.8452 19.98012,-16.21578 3.32071,-4.26234 2.16993,-7.30714 -10.04508,-26.56509 -6.11971,-9.64823 -15.88087,-25.27803 -21.68983,-34.73214 -5.80895,-9.45414 -11.38256,-18.11045 -12.38696,-19.23559 -1.00436,-1.12515 -3.42944,-2.48276 -5.38753,-3.01627 -4.52862,-1.23385 -7.56581,-0.0969 -37.68652,14.10421 -23.38789,11.02672 -28.49281,12.61917 -32.92769,10.26805 -1.30903,-0.69401 -7.25646,-6.51196 -13.21473,-12.92917 -4.1758,-4.49741 -11.75393,-8.82927 -10.40482,-15.51424 0.27799,-2.49556 4.86646,-12.96618 13.06453,-29.8146 12.96015,-26.63539 13.85121,-29.28828 11.54696,-34.40528 -1.1088,-2.46233 -10.20358,-8.78966 -46.30133,-32.21419 -24.73504,-16.05104 -24.3502,-15.81872 -27.4249,-16.50203 -5.72586,-1.27246 -8.90901,1.21279 -21.45234,16.76177 -12.35145,15.31116 -28.59634,34.68755 -30.57533,36.46736 -1.29484,1.16454 -3.15659,1.69898 -5.71758,1.64156 -4.55335,-0.10206 -32.69795,-8.34394 -36.02399,-10.54898 -1.29012,-0.85533 -2.90101,-2.9004 -3.58005,-4.54475 -0.67903,-1.64437 -3.47737,-16.98113 -6.21706,-34.08191 -2.73971,-17.10077 -5.18864,-31.78758 -5.4434,-32.63649 -0.25477,-0.84892 -1.67938,-2.57918 -3.16617,-3.845 l -2.70337,-2.30064 h -41.94241 z m 40.77934,151.32773 c 11.18552,-0.0917 22.2235,0.30939 28.55303,1.24041 42.78788,6.29365 83.95063,23.44594 114.35887,47.65248 17.82521,14.18978 36.69157,33.2444 46.70824,47.17538 l 2.48333,3.45625 -8.77023,9.01171 c -14.57946,14.97993 -77.90912,78.28463 -148.51425,148.45809 l -66.72855,66.32082 -51.8967,-50.98326 -51.89842,-50.98151 7.29281,-7.30831 c 4.01144,-4.01875 16.34417,-15.96895 27.40569,-26.55802 l 20.11287,-19.25323 27.06163,26.32654 27.05992,26.32478 44.50084,-43.84636 c 24.47475,-24.11517 54.28642,-53.39799 66.2483,-65.07333 11.96188,-11.67533 21.74922,-21.51816 21.74922,-21.8737 0,-1.21206 -15.01729,-11.12247 -23.65625,-15.61147 -42.1658,-21.91032 -90.2182,-26.04806 -135.29428,-11.64982 -65.01159,20.76623 -111.51747,75.62474 -118.94133,140.30163 -1.54434,13.45443 -0.60327,39.45986 1.85814,51.32605 8.82683,42.55365 35.06086,81.39625 71.59043,106.00061 43.20526,29.10094 92.9581,37.59667 144.15359,24.61253 63.34238,-16.06481 112.93792,-67.65217 126.77724,-131.8677 2.51522,-11.6708 7.60411,-33.40838 5.46427,-32.94505 l -65.05895,14.08702 96.94241,-103.37248 c 1.39234,0 7.61031,15.96519 11.62729,29.85526 7.10024,24.55151 9.38237,42.4278 8.70212,68.1426 -1.08629,41.06508 -12.59783,77.8863 -35.05473,112.12678 -20.23497,30.85266 -53.82546,61.46269 -85.13349,77.57839 -15.41982,7.93726 -39.74526,16.56607 -60.10285,21.31889 -2.31519,0.54056 -10.67897,1.83512 -18.5848,2.87843 -15.47009,2.04174 -41.40298,2.42397 -55.78234,0.82165 -21.69663,-2.41783 -48.16528,-9.57769 -67.88639,-18.36268 -30.61193,-13.63642 -62.34719,-37.11349 -82.99245,-61.39796 -47.3439,-55.68917 -63.76563,-125.50074 -45.94857,-195.33661 13.63152,-53.43013 46.29727,-98.23727 94.87821,-130.14488 29.88093,-19.62556 60.60704,-31.22994 97.2707,-36.73419 6.92538,-1.03975 18.25991,-1.62404 29.44543,-1.71574 z"
       inkscape:label="path111" /></g></svg>
