<?xml version="1.0" encoding="UTF-8" standalone="no"?>
<!-- Created with Inkscape (http://www.inkscape.org/) -->

<svg
   version="1.1"
   id="svg1"
   width="750"
   height="750"
   viewBox="0 0 750 750"
   xml:space="preserve"
   sodipodi:docname="uitaf_logo3.svg"
   inkscape:version="1.3.2 (091e20e, 2023-11-25)"
   xmlns:inkscape="http://www.inkscape.org/namespaces/inkscape"
   xmlns:sodipodi="http://sodipodi.sourceforge.net/DTD/sodipodi-0.dtd"
   xmlns="http://www.w3.org/2000/svg"
   xmlns:svg="http://www.w3.org/2000/svg"><sodipodi:namedview
     id="namedview1"
     pagecolor="#ffffff"
     bordercolor="#000000"
     borderopacity="0.25"
     inkscape:showpageshadow="2"
     inkscape:pageopacity="0.0"
     inkscape:pagecheckerboard="0"
     inkscape:deskcolor="#d1d1d1"
     inkscape:zoom="0.52916893"
     inkscape:cx="258.89653"
     inkscape:cy="424.25015"
     inkscape:window-width="2056"
     inkscape:window-height="1286"
     inkscape:window-x="0"
     inkscape:window-y="43"
     inkscape:window-maximized="0"
     inkscape:current-layer="g1" /><defs
     id="defs1" /><g
     id="g1"
     transform="translate(-146.81749,-123.66137)"><path
       id="path111"
       style="fill:#46787d;fill-opacity:1;stroke-width:0.89945;stroke-dasharray:none"
       d="m 480.34483,123.76293 -2.69921,2.48633 c -2.952,2.72129 -2.49789,0.54141 -10.74219,51.6875 -3.04691,18.90265 -3.68482,21.09354 -6.7461,23.12305 -3.10754,2.06021 -32.40818,10.45898 -36.48828,10.45898 -3.25638,0 -4.13517,-0.52944 -8.35351,-5.04297 -2.59232,-2.77372 -9.83324,-11.22225 -16.08985,-18.77343 -25.20482,-30.41984 -24.32931,-29.46266 -27.86718,-30.53516 -2.28377,-0.69231 -4.35812,-0.73627 -6.49024,-0.14063 -3.98146,1.11234 -69.6279,45.35428 -72.19336,48.6543 -1.06666,1.37207 -1.91601,3.76751 -1.91601,5.4082 0,1.95308 4.25678,11.74337 12.63086,29.05469 11.29627,23.52987 20.73984,27.18078 2.23242,46.32422 -17.54918,19.25025 -27.99267,9.84136 -50.98633,-1.04883 -22.30272,-9.74397 -25.69944,-10.9791 -30.24805,-11 -4.53558,-0.0209 -5.42216,0.28707 -7.7207,2.68946 -1.42823,1.49273 -11.37469,16.96343 -22.10352,34.3789 -10.72878,17.41548 -20.43217,33.04387 -21.5625,34.73047 -2.56977,3.83442 -2.69585,8.98587 -0.29492,12.07422 0.96838,1.24563 13.0826,10.76303 26.92188,21.15039 25.49332,19.13453 29.84542,22.95662 30.88086,27.13086 0.54037,2.17844 -2.33782,15.47725 -5.61329,25.9375 -1.58433,5.05959 -3.7664,6.49501 -11.03125,7.26172 -28.6643,3.02517 -61.25758,7.1514 -62.71289,7.93945 -4.08204,2.21047 -4.35241,4.86329 -4.26953,41.7461 0.095,42.21138 0.54576,49.69263 3.15821,52.33593 1.98488,2.00835 7.35103,2.85807 51.30468,8.13086 16.98573,2.03767 19.4362,2.79491 22.04297,6.82031 1.77778,2.74531 6.52163,22.04164 6.55078,26.64844 0.0288,4.53583 -1.34572,5.77702 -36.43164,32.90235 -11.44151,8.84557 -21.15786,16.7567 -21.59179,17.58007 -0.82222,1.56013 -1.23751,4.65426 -1.06836,7.94336 0.14917,2.90013 41.52145,71.88213 45.2207,75.39844 2.62698,2.49708 8.45254,3.35316 12.31055,1.80859 1.60755,-0.64358 9.76095,-4.11475 18.12109,-7.71289 21.41169,-9.21547 34.46825,-14.54193 37.32422,-15.22461 4.42364,-1.0574 7.93153,1.49877 18.97852,13.8125 12.91427,14.39519 14.26553,16.40302 13.63867,20.2754 -0.25847,1.59674 -6.14091,14.50138 -13.07422,28.67773 -13.16495,26.91795 -13.91035,29.21216 -11.21485,34.48633 1.37874,2.69765 16.49792,13.17321 52.76563,36.56054 20.69252,13.34362 21.67002,13.73664 27.15039,10.86915 1.39495,-0.72987 10.58578,-10.6029 20.42188,-21.93946 9.83613,-11.33656 19.95577,-22.64731 22.48828,-25.13476 4.17559,-4.1014 4.95518,-4.50577 8.37109,-4.33594 5.08101,0.2526 33.48677,8.7854 36.35156,10.91992 3.33215,2.48275 4.81618,7.94026 9.41602,34.63867 5.99779,34.81245 5.66418,33.43294 8.71289,36.31446 l 2.67773,2.52929 h 41.15235 c 39.87677,0 41.24642,-0.0592 44.10937,-1.84961 3.41551,-2.13586 4.22688,-4.26629 6.19336,-16.24609 4.43539,-27.01993 8.86909,-49.64489 10.18555,-51.98828 0.82868,-1.47514 2.77635,-3.43345 4.33008,-4.35156 3.15704,-1.86562 32.34271,-10.60894 35.39453,-10.60352 3.83144,0.007 7.64374,3.63261 24.36133,23.17383 24.30766,28.41326 26.11219,30.19922 30.5039,30.19922 2.71879,0 5.36874,-1.1046 11.09571,-4.62305 14.53434,-8.92935 61.19876,-40.75429 63.63085,-43.39648 4.44225,-4.82597 3.88149,-6.75689 -10.50585,-36.14844 -8.67435,-17.72059 -12.96485,-27.4593 -12.96485,-29.42969 0,-3.57663 3.03765,-7.58619 16.74805,-22.10742 9.73212,-10.30769 9.85934,-10.40371 13.75,-10.2793 3.89839,0.12465 14.45476,4.27911 44.59961,17.54883 7.47928,3.29237 14.71435,5.87418 17.11328,6.10742 3.74967,0.36455 4.46707,0.10747 7.35742,-2.64062 2.73902,-2.60419 39.53439,-61.79446 44.47461,-71.54297 2.25565,-4.45097 2.19905,-9.77928 -0.13477,-12.78125 -1.00927,-1.29828 -5.86877,-5.43625 -10.80078,-9.19531 -36.21965,-27.60633 -44.78322,-34.66505 -45.87109,-37.80469 -0.65306,-1.88479 -0.32558,-5.31229 1.29492,-13.55469 2.41607,-12.28883 4.70164,-17.79032 8.03516,-19.33789 1.22945,-0.57077 11.08723,-2.12505 21.90625,-3.45508 44.8823,-5.51758 45.23182,-5.5797 47.76172,-8.13867 l 2.31054,-2.33594 0.25,-42.49804 c 0.21574,-36.81839 0.0656,-42.85496 -1.12695,-45.1875 -2.41261,-4.72053 -0.0399,-4.22907 -44.21875,-9.13868 -13.98335,-1.55394 -26.33606,-3.17648 -27.45117,-3.60546 -1.11513,-0.42896 -2.63024,-1.95647 -3.36524,-3.39454 -1.51227,-2.95903 -6.79492,-23.4898 -6.79492,-26.40625 0,-5.34211 4.75399,-9.71923 38.15625,-35.13086 9.921,-7.54766 18.91073,-14.84426 19.97852,-16.21484 3.3207,-4.26234 2.17007,-7.30652 -10.04492,-26.56445 -6.11971,-9.64822 -15.8805,-25.27832 -21.68946,-34.73242 -5.80894,-9.45413 -11.38232,-18.11119 -12.38672,-19.23633 -1.00436,-1.12515 -3.42863,-2.48212 -5.38671,-3.01563 -4.52862,-1.23385 -7.56683,-0.0976 -37.6875,14.10352 -23.38787,11.02671 -28.49286,12.61869 -32.92774,10.26758 -1.30903,-0.69401 -7.25658,-6.51053 -13.21484,-12.92774 -4.1758,-4.4974 -11.75341,-8.83066 -10.4043,-15.51562 0.27799,-2.49556 4.86639,-12.96605 13.06445,-29.81446 12.96014,-26.63536 13.85113,-29.2873 11.54688,-34.40429 -1.1088,-2.46233 -10.20307,-8.79034 -46.30078,-32.21485 -24.73502,-16.05102 -24.35109,-15.81864 -27.42578,-16.50195 -5.72586,-1.27246 -8.90786,1.21275 -21.45118,16.76172 -12.35143,15.31114 -28.59718,34.68699 -30.57617,36.4668 -1.29484,1.16453 -3.15581,1.69999 -5.71679,1.64257 -4.55335,-0.10206 -32.69936,-8.34379 -36.0254,-10.54882 -1.29011,-0.85533 -2.90103,-2.90058 -3.58007,-4.54493 -0.67903,-1.64436 -3.47711,-16.98126 -6.2168,-34.08203 -2.73971,-17.10075 -5.1886,-31.78781 -5.44336,-32.63672 -0.25477,-0.84892 -1.67923,-2.57988 -3.16602,-3.8457 l -2.70312,-2.29883 h -41.94336 z m 41.08985,148.66016 c 9.06318,-0.0139 18.15224,0.0524 27.17187,1.03516 14.29346,1.93812 28.40885,5.15152 42.18164,9.42968 27.12391,8.50171 53.09267,21.24581 75.4961,38.84375 11.47049,9.16058 22.29794,19.12835 32.36328,29.81446 6.38376,6.76612 12.43029,13.86974 17.75195,21.50781 0.81868,0.96038 0.81998,2.2718 0.65039,3.45703 0.0342,0.80553 -0.28212,1.51835 -0.63281,2.22656 -7.31835,7.55126 -14.69146,15.05107 -22.0957,22.51758 -66.46681,66.78365 -133.37308,133.12633 -200.19141,199.55859 -0.79306,0.65003 -1.34469,1.66216 -2.3457,2 -0.80281,0.5081 -1.74532,0.31261 -2.64258,0.34961 -0.86849,0.14913 -1.6327,-0.24016 -2.4082,-0.57031 -34.02822,-33.42698 -68.05773,-66.85427 -102.08594,-100.28125 -0.62036,-0.73976 -1.57779,-1.25034 -1.92188,-2.17773 -0.53772,-0.83751 -0.37178,-1.81921 -0.39648,-2.76172 -0.14247,-0.83936 0.20819,-1.58333 0.54101,-2.33008 1.67171,-1.8028 3.48671,-3.5108 5.2129,-5.27734 15.36845,-15.27296 31.10951,-30.16324 46.74218,-45.16407 1.04653,-0.93569 1.98226,-2.03078 3.09766,-2.86718 0.92982,-0.64162 2.07508,-0.53572 3.14648,-0.51172 0.81969,-0.12717 1.53564,0.27122 2.27344,0.5664 17.10479,16.63996 34.20965,33.27997 51.31445,49.91993 35.47759,-35.20461 68.26753,-57.64326 103.1124,-93.4616 -85.80568,-138.38198 -332.62739,13.55638 -220.00207,198.29853 86.96406,123.19418 281.64637,83.96926 322.46057,-52.79801 -20.66204,-2.1515 -54.14491,1.19054 -85.97952,7.3593 36.10045,-41.29876 93.18987,-92.23338 124.21786,-135.22839 7.03173,-14.97147 15.13369,33.09023 16.26694,69.6661 0.6423,22.42592 -0.60014,44.98399 -4.90625,67.03125 -1.80972,8.75377 -4.27315,17.36939 -7.17383,25.82227 -7.13063,20.78588 -17.63139,40.44197 -31.22656,57.72265 -15.94178,20.34785 -35.9968,37.22303 -57.89258,50.84375 -8.33289,5.1211 -16.83627,9.99672 -25.67578,14.19532 -13.11847,6.08738 -26.77064,10.97535 -40.62891,15.08398 -5.68468,1.63677 -11.37871,3.28134 -17.18359,4.44141 -7.25512,1.23248 -14.53621,2.3507 -21.85743,3.11328 -12.5281,1.19118 -25.13503,1.51573 -37.71289,1.17773 -7.61662,-0.14799 -15.21965,-0.82656 -22.74218,-2.02929 -15.17618,-2.44271 -30.13813,-6.22582 -44.65235,-11.28711 -18.48512,-6.34867 -35.88285,-15.58679 -52.07617,-26.47852 -15.29329,-10.31345 -29.63971,-22.10906 -42.27539,-35.56836 -9.21666,-9.90395 -17.49161,-20.67627 -24.83203,-32.03711 -14.38376,-22.23578 -24.83527,-47.04578 -30.36133,-72.95898 -5.87552,-27.38528 -6.15173,-55.89937 -1.25391,-83.45703 4.29446,-24.44147 12.5598,-48.21419 24.70508,-69.8711 13.8568,-24.80565 32.73969,-46.69072 54.78125,-64.57422 14.6087,-11.81328 30.47405,-22.10037 47.32813,-30.41406 22.76859,-11.30731 47.46779,-18.47049 72.58593,-22.14453 9.85475,-1.3436 19.81938,-1.5812 29.75196,-1.73242 z"
       sodipodi:nodetypes="ccsssscscssccccscssssssscssscssssssssssssssssssccssssscssssssssssssscssssccccssssssssssssscssssssssssscccccccccccccccccccccccccccccccccccccccccccccccccccccc" /></g></svg>
