<?xml version="1.0" ?><!DOCTYPE svg  PUBLIC '-//W3C//DTD SVG 1.1//EN'  'http://www.w3.org/Graphics/SVG/1.1/DTD/svg11.dtd'>
<svg
  enable-background="new 0 0 128 128" 
  version="1.1" 
  viewBox="0 0 128 128" 
  xml:space="preserve" 
  xmlns="http://www.w3.org/2000/svg" 
  xmlns:xlink="http://www.w3.org/1999/xlink">
  <g id="g1" transform="translate(-146.81752,-123.66137)"><path id="path111" style="fill:#46787d;fill-opacity:1;stroke-width:0.153506;stroke-dasharray:none" d="m 203.7304,123.66137 -0.46066,0.42433 c -0.50381,0.46444 -0.42631,0.0924 -1.83334,8.82134 -0.52,3.22605 -0.62887,3.59996 -1.15133,3.94633 -0.53035,0.35161 -5.53099,1.785 -6.22733,1.785 -0.55576,0 -0.70574,-0.0904 -1.42567,-0.86067 -0.44242,-0.47338 -1.6782,-1.91526 -2.746,-3.204 -4.30162,-5.19165 -4.1522,-5.02829 -4.75599,-5.21133 -0.38976,-0.11815 -0.74379,-0.12566 -1.10767,-0.024 -0.6795,0.18984 -11.88315,7.74046 -12.32099,8.30367 -0.18205,0.23416 -0.327,0.64299 -0.327,0.923 0,0.33332 0.72649,2.0042 2.15566,4.95866 1.9279,4.01577 3.5396,4.63886 0.381,7.906 -2.99505,3.28538 -4.77741,1.6796 -8.70166,-0.179 -3.80633,-1.66297 -4.38603,-1.87376 -5.16233,-1.87733 -0.77407,-0.004 -0.92538,0.049 -1.31767,0.459 -0.24375,0.25476 -1.94128,2.89509 -3.77233,5.86733 -1.83104,2.97225 -3.48709,5.63949 -3.68,5.92734 -0.43857,0.6544 -0.46009,1.53359 -0.0503,2.06066 0.16527,0.21259 2.23276,1.83689 4.59467,3.60967 4.35085,3.26563 5.09361,3.91793 5.27033,4.63033 0.0922,0.37179 -0.39899,2.64145 -0.958,4.42667 -0.2704,0.8635 -0.6428,1.10848 -1.88267,1.23933 -4.89204,0.5163 -10.45462,1.22051 -10.70299,1.355 -0.69667,0.37726 -0.74282,0.83001 -0.72867,7.12467 0.0162,7.20408 0.0931,8.48088 0.539,8.932 0.33875,0.34276 1.25458,0.48778 8.75599,1.38767 2.8989,0.34776 3.31711,0.47699 3.762,1.164 0.30341,0.46853 1.11303,3.76177 1.118,4.548 0.005,0.77411 -0.22967,0.98594 -6.21766,5.61533 -1.95268,1.50965 -3.61094,2.85981 -3.685,3.00033 -0.14032,0.26627 -0.2112,0.79433 -0.18233,1.35567 0.0255,0.49496 7.08632,12.26788 7.71766,12.868 0.44834,0.42617 1.44257,0.57227 2.101,0.30867 0.27436,-0.10984 1.66587,-0.70225 3.09266,-1.31634 3.65426,-1.57277 5.88258,-2.48182 6.37,-2.59833 0.75497,-0.18046 1.35365,0.25579 3.239,2.35733 2.20404,2.45678 2.43465,2.79945 2.32767,3.46034 -0.0441,0.27251 -1.04805,2.4749 -2.23134,4.89433 -2.24681,4.594 -2.37403,4.98554 -1.914,5.88567 0.23531,0.4604 2.81565,2.24823 9.00533,6.23966 3.53153,2.27731 3.69835,2.34439 4.63367,1.855 0.23807,-0.12456 1.80664,-1.80956 3.48533,-3.74433 1.6787,-1.93477 3.40578,-3.86514 3.838,-4.28967 0.71263,-0.69997 0.84568,-0.76898 1.42866,-0.74 0.86716,0.0431 5.71508,1.49938 6.204,1.86367 0.56869,0.42372 0.82196,1.35514 1.607,5.91167 1.02362,5.94132 0.96669,5.70589 1.487,6.19766 l 0.457,0.43167 h 7.02333 c 6.80563,0 7.03938,-0.0101 7.52799,-0.31567 0.58292,-0.36452 0.72139,-0.72811 1.057,-2.77266 0.75698,-4.6114 1.51366,-8.47273 1.73834,-8.87267 0.14143,-0.25176 0.47383,-0.58597 0.739,-0.74267 0.5388,-0.31839 5.51982,-1.81059 6.04066,-1.80966 0.6539,0.001 1.30453,0.61996 4.15767,3.955 4.1485,4.84919 4.45647,5.154 5.20599,5.154 0.46401,0 0.91627,-0.18852 1.89367,-0.789 2.48053,-1.52395 10.44458,-6.9554 10.85966,-7.40634 0.75814,-0.82363 0.66244,-1.15317 -1.793,-6.16933 -1.48042,-3.02431 -2.21267,-4.68639 -2.21267,-5.02267 0,-0.61041 0.51843,-1.29471 2.85834,-3.773 1.66094,-1.75918 1.68266,-1.77556 2.34666,-1.75433 0.66533,0.0213 2.46695,0.7303 7.61167,2.995 1.27646,0.5619 2.51124,1.00253 2.92066,1.04233 0.63994,0.0622 0.76238,0.0183 1.25567,-0.45066 0.46746,-0.44445 6.7472,-10.54626 7.59033,-12.21 0.38496,-0.75963 0.3753,-1.669 -0.023,-2.18134 -0.17225,-0.22157 -1.00161,-0.92778 -1.84334,-1.56933 -6.18148,-4.71148 -7.643,-5.91617 -7.82866,-6.452 -0.11145,-0.32167 -0.0556,-0.90663 0.221,-2.31333 0.41234,-2.0973 0.80241,-3.03622 1.37133,-3.30034 0.20983,-0.0974 1.89222,-0.36267 3.73867,-0.58966 7.65991,-0.94167 7.71956,-0.95227 8.15133,-1.389 l 0.39433,-0.39867 0.0427,-7.253 c 0.0368,-6.28367 0.0112,-7.31391 -0.19234,-7.712 -0.41175,-0.80564 -0.007,-0.72176 -7.54666,-1.55967 -2.38649,-0.2652 -4.49468,-0.54212 -4.685,-0.61533 -0.19031,-0.0732 -0.44889,-0.3339 -0.57433,-0.57933 -0.25809,-0.50501 -1.15967,-4.00893 -1.15967,-4.50667 0,-0.91172 0.81135,-1.65875 6.512,-5.99567 1.69318,-1.28813 3.22743,-2.53342 3.40967,-2.76733 0.56673,-0.72744 0.37035,-1.24698 -1.71434,-4.53367 -1.04443,-1.64663 -2.71027,-4.31416 -3.70166,-5.92766 -0.99139,-1.61351 -1.94258,-3.09098 -2.114,-3.283 -0.17141,-0.19203 -0.58515,-0.42362 -0.91933,-0.51467 -0.77289,-0.21058 -1.29141,-0.0167 -6.432,2.407 -3.99153,1.88189 -4.86278,2.15359 -5.61966,1.75233 -0.22341,-0.11844 -1.23846,-1.11113 -2.25534,-2.20633 -0.71267,-0.76756 -2.00591,-1.5071 -1.77566,-2.648 0.0474,-0.42591 0.83053,-2.21287 2.22966,-5.08833 2.21187,-4.54577 2.36393,-4.99837 1.97067,-5.87167 -0.18924,-0.42024 -1.74132,-1.50022 -7.902,-5.498 -4.22144,-2.73937 -4.15591,-2.69971 -4.68066,-2.81633 -0.97721,-0.21717 -1.52027,0.20697 -3.661,2.86066 -2.10798,2.61311 -4.88058,5.91992 -5.21833,6.22367 -0.22099,0.19875 -0.53859,0.29013 -0.97567,0.28033 -0.7771,-0.0174 -5.58068,-1.424 -6.14833,-1.80033 -0.22018,-0.14598 -0.49511,-0.49503 -0.611,-0.77567 -0.11588,-0.28063 -0.59342,-2.89813 -1.061,-5.81666 -0.46757,-2.91853 -0.88552,-5.42512 -0.929,-5.57 -0.0435,-0.14489 -0.28658,-0.4403 -0.54033,-0.65634 l -0.46133,-0.39233 h -7.15833 z m 7.01267,25.37133 c 1.54678,-0.002 3.09798,0.009 4.63733,0.17667 2.43941,0.33077 4.84844,0.87919 7.19899,1.60933 4.62915,1.45096 9.06115,3.62595 12.88466,6.62934 1.95763,1.5634 3.80552,3.26457 5.52333,5.08833 1.0895,1.15475 2.12144,2.3671 3.02967,3.67067 0.13972,0.1639 0.13994,0.38772 0.111,0.59 0.006,0.13747 -0.0481,0.25913 -0.108,0.38 -1.249,1.28875 -2.50734,2.56871 -3.771,3.843 -11.34366,11.39774 -22.76233,22.72022 -34.16598,34.058 -0.13535,0.11093 -0.2295,0.28367 -0.40034,0.34133 -0.13701,0.0867 -0.29786,0.0534 -0.451,0.0597 -0.14822,0.0255 -0.27864,-0.041 -0.41099,-0.0973 -5.80748,-5.70487 -11.61518,-11.40979 -17.42266,-17.11466 -0.10588,-0.12626 -0.26928,-0.21339 -0.328,-0.37167 -0.0918,-0.14293 -0.0634,-0.31048 -0.0677,-0.47133 -0.0243,-0.14325 0.0355,-0.27022 0.0923,-0.39767 0.28531,-0.30768 0.59507,-0.59918 0.88967,-0.90067 2.62288,-2.60658 5.30935,-5.14786 7.97733,-7.708 0.17861,-0.15969 0.3383,-0.34658 0.52867,-0.48933 0.15869,-0.1095 0.35414,-0.0914 0.53699,-0.0873 0.1399,-0.0217 0.26209,0.0463 0.38801,0.0967 2.91921,2.83989 5.83844,5.67978 8.75766,8.51967 6.05484,-6.00825 11.65098,-9.83778 17.59784,-15.95078 -14.64416,-23.61719 -56.76838,2.31362 -37.547,33.84295 14.84186,21.02514 48.06762,14.33075 55.03324,-9.01086 -3.52632,-0.36719 -9.24073,0.20319 -14.67383,1.25599 6.16114,-7.04832 15.9044,-15.74117 21.19984,-23.07898 1.20008,-2.55513 2.58281,5.6474 2.77622,11.88968 0.10962,3.82736 -0.10242,7.67727 -0.83733,11.44 -0.30886,1.49398 -0.72929,2.96438 -1.22434,4.407 -1.21696,3.54746 -3.00909,6.9021 -5.32933,9.85133 -2.72073,3.4727 -6.14345,6.35273 -9.88033,8.67734 -1.42214,0.874 -2.87338,1.7061 -4.38199,2.42266 -2.23889,1.03892 -4.56886,1.87313 -6.934,2.57434 -0.97019,0.27934 -1.94197,0.56001 -2.93266,0.758 -1.23821,0.21034 -2.48085,0.40118 -3.73034,0.53133 -2.13813,0.2033 -4.28971,0.25869 -6.43633,0.201 -1.2999,-0.0253 -2.59748,-0.14107 -3.88133,-0.34633 -2.59006,-0.41689 -5.14357,-1.06254 -7.62066,-1.92634 -3.15479,-1.0835 -6.12401,-2.66014 -8.88766,-4.519 -2.61006,-1.76016 -5.05851,-3.77328 -7.215,-6.07033 -1.57298,-1.69027 -2.98523,-3.52875 -4.238,-5.46767 -2.45483,-3.7949 -4.23855,-8.02914 -5.18166,-12.45166 -1.00276,-4.67376 -1.0499,-9.54016 -0.214,-14.24334 0.73292,-4.17134 2.14354,-8.22855 4.21633,-11.92466 2.36489,-4.2335 5.58757,-7.96855 9.34933,-11.02067 2.49321,-2.01613 5.2009,-3.7718 8.07733,-5.19067 3.88584,-1.92978 8.10116,-3.15229 12.38799,-3.77933 1.68188,-0.22931 3.38251,-0.26986 5.07767,-0.29567 z" /></g></svg>
